Coordinates
version=1
nRows=22
nColumns=24
inDegrees=yes

Units are S.I. units (second, meters, Newtons, ...)
Angles are in degrees.

endheader
time	pelvis_tilt	pelvis_list	pelvis_rotation	pelvis_tx	pelvis_ty	pelvis_tz	hip_flexion_r	hip_adduction_r	hip_rotation_r	knee_angle_r	ankle_angle_r	subtalar_angle_r	mtp_angle_r	hip_flexion_l	hip_adduction_l	hip_rotation_l	knee_angle_l	ankle_angle_l	subtalar_angle_l	mtp_angle_l	lumbar_extension	lumbar_bending	lumbar_rotation
      6.23000000	     13.45412354	      2.81191795	      2.16464086	      2.60552215	      0.94670003	     -0.33905272	      1.67662651	     -6.91057420	     -7.65148523	    -63.85516013	     13.87867342	     -1.03607426	      0.00000000	    -12.90599285	      6.12384655	     12.24349703	     -8.04683306	     15.15085087	     -3.80490210	      0.00000000	    -24.62518442	     -3.21049670	     -0.00850939
      6.23500000	     13.45650611	      2.63649266	      2.47065336	      2.61146774	      0.94716476	     -0.33931775	      2.26877437	     -6.70332140	     -7.93163244	    -63.16370445	     14.66457373	     -0.87916371	      0.00000000	    -13.51001771	      5.80132421	     12.34158420	     -7.59597071	     15.21917647	     -3.63756458	      0.00000000	    -24.37109910	     -2.88073576	     -0.53392472
      6.24000000	     13.57062685	      2.54649476	      2.88241036	      2.61557961	      0.94777678	     -0.33972040	      2.88792497	     -6.59518489	     -8.27358455	    -62.50467410	     15.26367850	     -0.69423204	      0.00000000	    -13.98213893	      5.56943436	     12.62682474	     -7.43626841	     15.22165578	     -3.57638445	      0.00000000	    -27.67044489	     -2.43272863	     -1.17017397
      6.24500000	     13.53814627	      2.40392849	      3.10624145	      2.62137198	      0.94807769	     -0.33985008	      3.51707184	     -6.41810098	     -8.45244261	    -61.68823613	     15.95229797	     -0.51824821	      0.00000000	    -14.52407175	      5.29339605	     12.59767956	     -7.00514467	     15.30924762	     -3.36481389	      0.00000000	    -27.61332351	     -2.15455668	     -1.59976555
      6.25000000	     13.55908432	      2.28643178	      3.47403989	      2.62715135	      0.94843941	     -0.34010759	      4.01629470	     -6.27227046	     -8.78274276	    -60.75209848	     16.56193684	     -0.33678338	      0.00000000	    -15.11870170	      4.99832567	     12.71880898	     -6.58278933	     15.34694625	     -3.15271881	      0.00000000	    -27.62539577	     -1.84783914	     -2.21519473
      6.25500000	     13.55732235	      2.16999398	      3.78129438	      2.63288674	      0.94869887	     -0.34031576	      4.53741628	     -6.12839559	     -9.04264712	    -59.75378767	     17.17018748	     -0.10530121	      0.00000000	    -15.67765740	      4.72192814	     12.77249185	     -6.17428310	     15.38688988	     -2.96703576	      0.00000000	    -27.62304816	     -1.56030792	     -2.73386077
      6.26000000	     13.55038712	      2.06599792	      4.08207471	      2.63863188	      0.94889782	     -0.34051072	      5.03885142	     -5.99727976	     -9.28933102	    -58.67964634	     17.72988396	      0.12833745	      0.00000000	    -16.23073139	      4.45708442	     12.82239740	     -5.76562491	     15.43168631	     -2.78709084	      0.00000000	    -27.61102754	     -1.29009172	     -3.24932784
      6.26500000	     13.55524175	      1.97785772	      4.39493613	      2.64439051	      0.94906280	     -0.34071849	      5.49316955	     -5.88598227	     -9.55091944	    -57.52240296	     18.23158270	      0.35147324	      0.00000000	    -16.79813328	      4.20109067	     12.87258120	     -5.35312098	     15.47386363	     -2.61185667	      0.00000000	    -27.60597725	     -1.02954045	     -3.78720291
      6.27000000	     13.54219323	      1.89496778	      4.68548947	      2.65009747	      0.94915392	     -0.34087211	      5.94862881	     -5.77255013	     -9.77053598	    -56.29078382	     18.71955557	      0.57308191	      0.00000000	    -17.33045756	      3.95555040	     12.90178247	     -4.96642509	     15.51030105	     -2.43132137	      0.00000000	    -27.60131716	     -0.78771099	     -4.28700337
      6.27500000	     13.53475748	      1.82543137	      4.98032972	      2.65581197	      0.94919979	     -0.34103006	      6.36533225	     -5.67399041	     -9.99161323	    -54.98127076	     19.15853202	      0.77773490	      0.00000000	    -17.86786245	      3.71958128	     12.93229155	     -4.58188887	     15.54852350	     -2.25933305	      0.00000000	    -27.59803722	     -0.55762249	     -4.79599113
      6.28000000	     13.46810835	      1.76138017	      5.19340933	      2.66152901	      0.94910084	     -0.34111073	      6.84318309	     -5.58060796	    -10.11780912	    -53.62352412	     19.58635893	      1.01939562	      0.00000000	    -18.34235859	      3.52092890	     12.89686723	     -4.19726474	     15.59393884	     -2.13369470	      0.00000000	    -27.53464803	     -0.37171212	     -5.19042543
      6.28500000	     13.45484685	      1.70424127	      5.51151768	      2.66720796	      0.94905312	     -0.34126751	      7.19344390	     -5.49281730	    -10.35274276	    -52.14246449	     19.96830561	      1.16548849	      0.00000000	    -18.84684058	      3.28877838	     12.93184306	     -3.86430544	     15.65685354	     -1.93897749	      0.00000000	    -27.53819711	     -0.14417509	     -5.71125144
      6.29000000	     13.48895507	      1.67459233	      5.82555763	      2.67285572	      0.94902209	     -0.34139440	      7.45940645	     -5.42106525	    -10.55882022	    -50.58275477	     20.27937070	      1.27742630	      0.00000000	    -19.40279275	      3.07492023	     12.99741142	     -3.52757900	     15.66975171	     -1.78044816	      0.00000000	    -27.60381278	      0.05829566	     -6.25456267
      6.29500000	     13.40499821	      1.64341231	      5.99762192	      2.67856310	      0.94876599	     -0.34142368	      7.86168439	     -5.35143011	    -10.60963789	    -48.99403979	     20.58888174	      1.46133536	      0.00000000	    -19.83887142	      2.92436624	     12.95085010	     -3.19164425	     15.69926333	     -1.68568424	      0.00000000	    -27.52188687	      0.20162634	     -6.60911116
      6.30000000	     13.45406076	      1.62660039	      6.35558382	      2.68416294	      0.94865798	     -0.34154964	      8.02763641	     -5.28840860	    -10.85316678	    -47.26522007	     20.84908540	      1.47762116	      0.00000000	    -20.38016282	      2.70227383	     13.03284997	     -2.91202717	     15.76782320	     -1.49580827	      0.00000000	    -27.63150517	      0.40073469	     -7.17635086
      6.30500000	     13.38662328	      1.59485233	      6.56089371	      2.68985787	      0.94833306	     -0.34158193	      8.32398169	     -5.21067172	    -10.92760171	    -45.50224564	     21.10541220	      1.57852694	      0.00000000	    -20.80703615	      2.53685032	     13.01348051	     -2.63055500	     15.83994055	     -1.40409175	      0.00000000	    -27.58523831	      0.55706161	     -7.52241398
      6.31000000	     13.32736636	      1.59662074	      6.78588744	      2.69552288	      0.94800371	     -0.34158612	      8.57040597	     -5.15842895	    -10.98865796	    -43.66773539	     21.25221551	      1.61407732	      0.00000000	    -21.23488814	      2.39077179	     13.02507909	     -2.36415171	     15.87475300	     -1.26869261	      0.00000000	    -27.55669763	      0.68037105	     -7.95455084
      6.31500000	     13.33963340	      1.59531728	      7.09142290	      2.70115839	      0.94769885	     -0.34166691	      8.67004771	     -5.10343188	    -11.15624690	    -41.72429459	     21.42151478	      1.56754027	      0.00000000	    -21.70949201	      2.20605554	     13.08578508	     -2.15525951	     15.98843758	     -1.13098587	      0.00000000	    -27.62705892	      0.84881226	     -8.40900950
      6.32000000	     13.43150003	      1.64308257	      7.36679481	      2.70677180	      0.94743413	     -0.34170170	      8.64871856	     -5.08427696	    -11.27812534	    -39.72498996	     21.51456983	      1.54812270	      0.00000000	    -22.27885873	      2.06378465	     13.16198875	     -1.93409489	     16.04065762	     -1.02311597	      0.00000000	    -27.79315813	      0.96267387	     -8.89307827
      6.32500000	     13.42457608	      1.67877426	      7.60213010	      2.71243324	      0.94701150	     -0.34168486	      8.70820546	     -5.05150185	    -11.33367236	    -37.67543785	     21.55883661	      1.48200264	      0.00000000	    -22.72673007	      1.93720441	     13.19909300	     -1.75493044	     16.12779543	     -0.90149457	      0.00000000	    -27.84607722	      1.06387779	     -9.29569844
      6.33000000	     13.41938173	      1.73090909	      7.84512669	      2.71810247	      0.94654555	     -0.34166977	      8.72251941	     -5.03383741	    -11.38666099	    -35.56857649	     21.55501564	      1.39577267	      0.00000000	    -23.16345361	      1.82262709	     13.25924500	     -1.60928173	     16.22349132	     -0.78483906	      0.00000000	    -27.90633306	      1.15431497	     -9.70063702
      6.33500000	     13.29698697	      1.80119735	      8.00304950	      2.72381305	      0.94588959	     -0.34153809	      8.85838597	     -5.03207555	    -11.31235570	    -33.45601505	     21.44107923	      1.21905925	      0.00000000	    -23.47172065	      1.77521973	     13.27920119	     -1.48823419	     16.32387890	     -0.71645897	      0.00000000	    -27.82930460	      1.16740786	    -10.03109207
